[img]http://img831.imageshack.us/img831/1985/covervhe.jpg[/img]


                                                               
¦¦¦¦¦¦¦¦¦¦¦¦¦¦¦¦¦¦¦¦¦¦¦¦¦¦¦¦¦¦¦¦¦¦¦¦¦¦¦¦¦¦¦¦¦¦¦¦¦¦¦¦¦¦¦¦¦¦¦¦¦¦¦
¦¦¦¦¦¦¦¦¦¦¦¦¦¦¦¦¦¦¦¦¦¦¦¦¦¦¦¦¦¦¦¦¦¦¦¦¦¦¦¦¦¦¦¦¦¦¦¦¦¦¦¦¦¦¦¦¦¦¦¦¦¦¦
¦¦-----------------------------------------------------------¦¦
¦¦                                                           ¦¦
¦¦                         ########                          ¦¦
¦¦                       ############                        ¦¦
¦¦                      ##############                       ¦¦
¦¦                     ################                      ¦¦
¦¦                     ################                      ¦¦
¦¦#                   ##################                    #¦¦
¦¦##                  ##################                   ##¦¦
¦¦##                  ##################                  ###¦¦
¦¦###                 ##################                 ####¦¦
¦¦####                #####  ####  #####                #### ¦¦
¦¦ ####               ####   ###    ####               ##### ¦¦
¦¦ #####              ###    ###    ####              #####  ¦¦
¦¦  #####             ###    ####   ###              ######  ¦¦
¦¦  ######            #################             ######   ¦¦
¦¦   #####            ######## ########            ######    ¦¦
¦¦    #####            #######  #######           #######    ¦¦
¦¦    #######           ##############           #######     ¦¦
¦¦     #######            #########             #######      ¦¦
¦¦      #######          ############          #######       ¦¦
¦¦       #######         ############         #######        ¦¦
¦¦        #######        ############        #######         ¦¦
¦¦         #######       ##       ###      ########          ¦¦
¦¦          ########     ###########      ########           ¦¦
¦¦           ########    ###########     ########            ¦¦
¦¦            #########   #########    #########             ¦¦
¦¦             ##########  #######   #########               ¦¦
¦¦               #########          #########                ¦¦
¦¦                ##########      ##########                 ¦¦
¦¦                  ##########  ##########                   ¦¦
¦¦           ###     ###################     ###             ¦¦
¦¦          ####      ################       ####            ¦¦
¦¦            ###       ##############      ####             ¦¦
¦¦             ###   ####################  ####              ¦¦
¦¦             ############## ################               ¦¦
¦¦     ###################### #######################        ¦¦
¦¦     ###################        ######### #########        ¦¦
¦¦     ######### ## ##                ##### #########        ¦¦
¦¦      ####      ###                    ###     ####        ¦¦
¦¦        ##      ####  #            #  ###       ##         ¦¦
¦¦                 ######            ######                  ¦¦
¦¦                  #####            #####                   ¦¦
¦¦                                                           ¦¦
¦¦¦¦¦¦¦¦¦¦¦¦¦¦¦¦¦¦¦¦¦¦¦¦¦¦¦¦¦¦¦¦¦¦¦¦¦¦¦¦¦¦¦¦¦¦¦¦¦¦¦¦¦¦¦¦¦¦¦¦¦¦¦
¦¦¦¦¦¦¦¦¦¦¦¦¦¦¦¦+¦¦¦¦¦¦¦¦¦¦¦¦¦¦¦¦¦¦¦¦¦¦¦¦¦¦¦¦¦¦+¦¦¦¦¦¦¦¦¦¦¦¦¦¦¦
¦¦¦¦¦¦¦¦¦¦¦¦¦¦¦¦¦  RANA TAIMOOR ALI'S Release  ¦¦¦¦¦¦¦¦¦¦¦¦¦¦¦¦
¦¦¦¦¦¦¦¦¦¦¦¦¦¦¦¦+¦¦¦¦¦¦¦¦¦¦¦¦¦¦¦¦¦¦¦¦¦¦¦¦¦¦¦¦¦¦+¦¦¦¦¦¦¦¦¦¦¦¦¦¦¦
¦¦¦¦¦¦¦¦¦¦¦¦¦¦¦¦¦¦¦¦¦¦¦¦¦¦¦Presents¦¦¦¦¦¦¦¦¦¦¦¦¦¦¦¦¦¦¦¦¦¦¦¦¦¦¦¦
¦¦¦¦¦¦¦¦¦¦¦¦¦¦¦¦¦¦¦¦¦¦ ¦ Ripper's Note  ¦¦¦¦¦¦¦¦¦¦¦¦¦¦¦¦¦¦¦¦¦¦¦




Release : WWE Vengeance 2011 !Taimoor!

Release Date: Sunday, October 23rd 8pm EDT
  
Release Length: 2h 57mn

Total Size : 1.29 GB





Matches
WWE Champion Alberto Del Rio vs. John Cena (Last Man Standing Match)

World Heavyweight Champion Mark Henry vs. Big Show

Randy Orton vs. Cody Rhodes

Triple H & CM Punk vs. The Miz & R-Truth

Sheamus vs. Christian

Disk 1

Video
Format                           : AVC
Format/Info                      : Advanced Video Codec
Format profile                   : High@L4.1
Format settings, CABAC           : Yes
Format settings, ReFrames        : 4 frames
Codec ID                         : 7
Duration                         : 1h 28mn
Bit rate                         : 1 020 Kbps
Width                            : 704 pixels
Height                           : 400 pixels
Display aspect ratio             : 16:9
Frame rate mode                  : Constant
Frame rate                       : 58.000 fps
Color space                      : YUV
Chroma subsampling               : 4:2:0
Bit depth                        : 8 bits
Scan type                        : Progressive
Bits/(Pixel*Frame)               : 0.062
Stream size                      : 648 MiB (92%)
Writing library                  : x264 core 115
Title                            : !Taimoor!


Audio
Format                           : AAC
Format/Info                      : Advanced Audio Codec
Format profile                   : LC
Codec ID                         : 10
Duration                         : 1h 28mn
Bit rate                         : 80.7 Kbps
Channel(s)                       : 2 channels
Channel positions                : Front: L R
Sampling rate                    : 44.1 KHz
Compression mode                 : Lossy
Stream size                      : 53.4 MiB (8%)
Title                            : !Taimoor!



Disk 2


Video
Format                           : AVC
Format/Info                      : Advanced Video Codec
Format profile                   : High@L4.1
Format settings, CABAC           : Yes
Format settings, ReFrames        : 4 frames
Codec ID                         : 7
Duration                         : 1h 28mn
Bit rate                         : 895 Kbps
Width                            : 704 pixels
Height                           : 400 pixels
Display aspect ratio             : 16:9
Frame rate mode                  : Constant
Frame rate                       : 58.000 fps
Color space                      : YUV
Chroma subsampling               : 4:2:0
Bit depth                        : 8 bits
Scan type                        : Progressive
Bits/(Pixel*Frame)               : 0.055
Stream size                      : 569 MiB (91%)
Writing library                  : x264 core 115
Title                            : !Taimoor!

Audio
Format                           : AAC
Format/Info                      : Advanced Audio Codec
Format profile                   : LC
Codec ID                         : 10
Duration                         : 1h 28mn
Bit rate                         : 80.6 Kbps
Channel(s)                       : 2 channels
Channel positions                : Front: L R
Sampling rate                    : 44.1 KHz
Compression mode                 : Lossy
Stream size                      : 53.4 MiB (9%)
Title                            : !Taimoor!


SCREENSHOT

 
[img]http://img12.imageshack.us/img12/12/68364313.jpg[/img]
[img]http://img31.imageshack.us/img31/4609/96373241.jpg[/img]
[img]http://img593.imageshack.us/img593/1333/90341031.jpg[/img]
[img]http://img508.imageshack.us/img508/7168/47930303.jpg[/img]